M48
; DRILL file {KiCad 9.0.9} date 2026-05-03T08:41:36+0900
; FORMAT={-:-/ absolute / metric / decimal}
; #@! TF.CreationDate,2026-05-03T08:41:36+09:00
; #@! TF.GenerationSoftware,Kicad,Pcbnew,9.0.9
; #@! TF.FileFunction,MixedPlating,1,2
FMAT,2
METRIC
; #@! TA.AperFunction,Plated,PTH,ViaDrill
T1C0.300
; #@! TA.AperFunction,Plated,PTH,ComponentDrill
T2C0.798
; #@! TA.AperFunction,Plated,PTH,ComponentDrill
T3C1.000
; #@! TA.AperFunction,NonPlated,NPTH,ComponentDrill
T4C3.200
%
G90
G05
T1
X131.016Y-93.932
X131.143Y-39.83
X131.143Y-61.166
X131.27Y-109.553
X131.27Y-125.174
X132.032Y-71.326
X132.286Y-63.706
X132.413Y-85.931
X132.667Y-51.006
X133.81Y-74.501
X133.937Y-98.504
X134.445Y-102.949
X134.699Y-36.02
X134.826Y-90.63
X134.826Y-128.857
X134.953Y-68.405
X135.08Y-79.835
X135.842Y-61.42
X136.223Y-55.197
X136.477Y-91.9
X137.112Y-49.228
X137.62Y-86.439
X137.747Y-45.672
X137.874Y-113.617
X138.128Y-75.771
X138.636Y-47.704
X138.763Y-97.488
X138.763Y-100.282
X139.017Y-67.516
X139.271Y-108.283
X139.398Y-51.895
X139.525Y-49.228
X140.033Y-68.913
X140.16Y-79.962
X140.16Y-86.185
X141.049Y-121.364
X141.43Y-62.055
X141.43Y-73.993
X141.43Y-97.488
X142.192Y-38.306
X142.573Y-92.789
X142.7Y-54.181
X142.827Y-49.228
X142.954Y-128.095
X143.462Y-108.283
X143.716Y-105.108
X144.732Y-64.214
X144.732Y-71.124
X144.986Y-56.213
X145.494Y-114.633
X146.002Y-105.108
X146.383Y-68.659
X146.637Y-59.261
X146.764Y-48.593
X147.78Y-91.519
X148.034Y-104.092
X148.542Y-122.126
X149.304Y-56.594
X149.304Y-112.347
X149.431Y-117.173
X150.066Y-81.105
X150.066Y-91.392
X150.193Y-55.324
X150.32Y-128.857
X151.336Y-66.5
X151.336Y-79.327
X151.336Y-99.52
X151.463Y-53.546
X151.971Y-49.609
X151.971Y-50.625
X152.098Y-63.452
X152.352Y-101.679
X152.606Y-52.657
X152.606Y-74.882
X152.606Y-78.184
X152.606Y-81.359
X153.114Y-48.618
X153.114Y-109.553
X153.368Y-51.26
X153.495Y-42.243
X153.495Y-104.6
X153.622Y-55.578
X154.638Y-45.418
X154.638Y-85.55
X154.765Y-54.943
X155.4Y-127.333
X155.908Y-53.546
X157.051Y-38.052
X157.051Y-91.773
X157.305Y-60.912
X157.686Y-122.38
X157.813Y-56.594
X158.194Y-51.006
X158.829Y-63.452
X158.829Y-87.836
X159.083Y-68.151
X159.21Y-51.895
X159.591Y-85.677
X159.718Y-111.204
X159.972Y-79.327
X159.972Y-117.808
X160.099Y-51.26
X160.099Y-55.197
X161.115Y-62.055
X161.242Y-80.47
X161.242Y-114.506
X161.369Y-37.925
X161.369Y-91.646
X162.512Y-54.181
X162.512Y-69.04
X162.639Y-47.45
X162.893Y-128.857
X163.02Y-102.06
X163.274Y-46.688
X163.528Y-87.836
X163.655Y-43.767
X163.655Y-115.776
X163.807Y-45.951
X164.163Y-38.052
X164.163Y-54.308
X164.29Y-108.537
X164.544Y-45.037
X164.671Y-97.869
X165.433Y-44.275
X165.56Y-51.895
X166.195Y-40.973
X166.449Y-60.785
X166.449Y-66.246
X166.449Y-85.804
X166.957Y-40.037
X167.846Y-73.993
X167.846Y-90.503
X167.846Y-97.742
X168.227Y-54.181
X168.354Y-51.133
X168.481Y-68.913
X168.634Y-38.687
X169.497Y-126.444
X169.684Y-48.72
X170.005Y-75.644
X170.513Y-59.388
X170.513Y-62.563
X170.767Y-48.72
X171.021Y-88.217
X171.021Y-98.123
X171.148Y-64.976
X171.148Y-86.185
X171.402Y-36.782
X171.783Y-81.105
X171.783Y-82.808
X171.91Y-112.601
X171.91Y-119.078
X172.164Y-59.388
X172.291Y-48.72
X172.291Y-78.946
X172.418Y-41.1
X172.545Y-68.659
X172.672Y-104.727
X172.926Y-36.782
X172.926Y-40.592
X173.18Y-48.72
X173.434Y-41.1
X173.942Y-124.031
X174.45Y-68.024
X174.45Y-73.866
X174.45Y-85.804
X174.48Y-36.782
X174.577Y-59.388
X175.72Y-52.53
X175.72Y-53.419
X175.974Y-39.576
X176.101Y-64.468
X176.228Y-128.73
X176.482Y-93.043
X176.609Y-67.77
X176.863Y-60.531
X176.863Y-72.088
X176.863Y-74.374
X177.498Y-54.308
X177.625Y-83.772
X177.752Y-100.484
X177.804Y-88.546
X178.387Y-97.742
X178.387Y-115.776
X178.514Y-60.531
X179.149Y-62.055
X179.403Y-73.104
X179.53Y-52.784
X179.53Y-60.531
X179.657Y-68.659
X179.657Y-92.916
X180.165Y-48.847
X180.292Y-123.65
X180.381Y-114.289
X181.054Y-67.008
X181.054Y-91.646
X181.308Y-48.847
X181.308Y-60.531
X181.308Y-62.055
X181.689Y-43.005
X181.689Y-45.545
X181.689Y-68.913
X181.816Y-121.364
X182.197Y-60.531
X182.197Y-62.055
X182.197Y-74.882
X182.578Y-67.516
X182.705Y-69.675
X182.705Y-72.85
X182.832Y-80.089
X182.832Y-127.206
X182.959Y-63.452
X183.467Y-86.82
X184.102Y-75.517
X184.165Y-74.438
X184.356Y-82.883
X184.61Y-41.481
X184.61Y-42.497
X184.61Y-43.513
X184.61Y-44.529
X184.737Y-60.15
X184.737Y-96.853
X184.864Y-58.118
X185.245Y-62.563
X185.626Y-68.913
X185.626Y-91.9
X185.753Y-66.881
X185.88Y-72.723
X186.769Y-112.474
X187.277Y-120.094
X187.531Y-41.1
X187.658Y-79.835
X187.658Y-85.677
X187.658Y-97.615
X187.658Y-103.33
X188.166Y-53.8
X188.547Y-128.73
X189.563Y-66.754
X189.69Y-68.405
X189.817Y-74.374
X189.817Y-124.031
X189.944Y-83.391
X190.452Y-116.18
X190.96Y-63.325
X190.96Y-72.215
X190.96Y-98.504
X191.341Y-44.91
X191.722Y-39.703
X191.722Y-114.252
X192.23Y-78.819
X192.611Y-67.516
X193.246Y-43.894
X193.246Y-54.816
X193.246Y-90.884
X193.627Y-48.593
X193.754Y-126.19
X194.262Y-60.531
X194.262Y-69.04
X194.262Y-78.819
X194.262Y-97.869
X197.437Y-64.849
X197.437Y-110.442
X197.5Y-88.407
X197.564Y-76.66
X197.691Y-83.899
X197.691Y-128.73
X198.072Y-54.308
X198.199Y-86.82
X198.707Y-71.707
X198.707Y-119.967
X198.961Y-67.77
X198.961Y-92.154
X200.866Y-79.962
X200.866Y-92.027
X200.866Y-103.203
X200.866Y-124.92
X202.136Y-48.593
X202.517Y-43.894
X203.025Y-72.469
X203.66Y-62.309
X203.787Y-88.725
X204.168Y-83.137
X204.168Y-110.188
X204.295Y-97.615
X204.676Y-54.435
X205.311Y-72.469
X205.692Y-86.947
X207.47Y-61.547
X207.47Y-69.04
X207.47Y-85.677
X207.47Y-103.33
X207.978Y-114.125
X208.232Y-44.91
X208.359Y-92.789
X208.613Y-128.73
X209.375Y-83.391
X209.502Y-69.167
X209.502Y-96.472
X209.756Y-111.839
X210.772Y-36.274
X210.772Y-39.83
X210.772Y-116.665
X210.899Y-62.182
X211.28Y-54.435
X211.407Y-85.677
X211.788Y-42.116
X211.915Y-72.596
X211.915Y-92.154
X211.915Y-102.441
X212.296Y-99.139
X212.931Y-85.55
X213.058Y-105.616
X213.058Y-111.077
X214.074Y-61.547
X214.074Y-79.2
X214.328Y-126.698
X214.582Y-121.745
X215.471Y-59.896
X215.598Y-45.037
X215.725Y-48.212
X215.979Y-55.07
X216.106Y-38.814
X216.106Y-51.133
X216.106Y-109.172
X216.106Y-112.728
X216.106Y-116.284
X217.376Y-64.468
X218.773Y-67.262
X219.027Y-103.584
X219.154Y-91.646
X219.535Y-75.644
X219.789Y-128.73
X220.17Y-36.274
X220.678Y-54.308
X221.44Y-97.615
X223.726Y-39.957
X223.853Y-118.189
X223.98Y-125.428
T2
X144.272Y-43.132
X146.274Y-43.132
X148.27Y-43.132
X150.272Y-43.132
T3
X195.786Y-38.56
X198.326Y-38.56
X200.866Y-38.56
X203.406Y-38.56
X205.946Y-38.56
X208.486Y-38.56
T4
X135.0Y-40.0
X135.0Y-125.0
X220.0Y-40.0
X220.0Y-125.0
M30
