M48
; DRILL file {KiCad 9.0.9} date 2026-08-14T06:57:44+0900
; FORMAT={-:-/ absolute / metric / decimal}
; #@! TF.CreationDate,2026-08-14T06:57:44+09:00
; #@! TF.GenerationSoftware,Kicad,Pcbnew,9.0.9
; #@! TF.FileFunction,MixedPlating,1,2
FMAT,2
METRIC
; #@! TA.AperFunction,Plated,PTH,ViaDrill
T1C0.300
; #@! TA.AperFunction,Plated,PTH,ComponentDrill
T2C0.700
; #@! TA.AperFunction,Plated,PTH,ComponentDrill
T3C0.762
; #@! TA.AperFunction,Plated,PTH,ComponentDrill
T4C1.000
; #@! TA.AperFunction,Plated,PTH,ComponentDrill
T5C1.200
; #@! TA.AperFunction,NonPlated,NPTH,ComponentDrill
T6C3.200
%
G90
G05
T1
X84.181Y-45.096
X84.562Y-92.975
X84.562Y-105.294
X84.562Y-123.963
X84.689Y-111.517
X85.324Y-78.116
X85.324Y-128.662
X85.578Y-38.365
X85.641Y-51.128
X88.753Y-129.932
X90.785Y-120.153
X91.547Y-54.494
X92.309Y-46.112
X92.69Y-37.222
X92.944Y-103.008
X93.198Y-93.864
X93.579Y-71.131
X94.214Y-60.336
X94.468Y-82.307
X94.722Y-50.43
X95.103Y-108.596
X95.611Y-41.54
X95.865Y-127.011
X96.373Y-71.131
X97.008Y-94.245
X97.262Y-67.956
X97.643Y-90.562
X97.77Y-102.754
X98.405Y-108.215
X100.056Y-111.771
X100.437Y-61.098
X100.437Y-71.512
X102.215Y-129.551
X104.628Y-45.096
X104.755Y-46.874
X106.152Y-74.052
X106.279Y-40.651
X106.279Y-66.686
X107.549Y-84.974
X107.803Y-41.54
X108.438Y-54.875
X108.565Y-108.215
X108.819Y-99.452
X111.74Y-76.338
X112.375Y-128.535
X112.502Y-59.828
X112.883Y-37.222
X113.01Y-46.874
X113.924Y-68.972
X114.407Y-45.223
X115.804Y-65.924
X116.058Y-46.874
X116.058Y-126.884
X117.582Y-42.556
X117.836Y-80.529
X118.09Y-61.479
X120.122Y-76.694
X120.757Y-103.135
X125.329Y-96.023
X125.583Y-37.857
X127.488Y-129.551
X127.945Y-73.138
X129.012Y-56.653
X129.774Y-74.814
X130.79Y-49.287
X131.425Y-43.064
X132.822Y-103.897
X133.076Y-37.603
X133.33Y-94.753
X134.219Y-119.01
X135.108Y-52.716
X136.505Y-82.307
X136.505Y-128.916
X137.648Y-117.613
X138.156Y-73.798
X138.283Y-98.69
X139.299Y-60.971
X139.553Y-111.644
X140.645Y-68.972
X142.601Y-46.874
X142.855Y-122.439
X143.109Y-54.113
X144.379Y-45.858
X144.379Y-104.913
X145.014Y-65.797
X146.03Y-127.773
X146.081Y-73.138
X146.589Y-75.627
X147.046Y-88.53
X147.173Y-82.815
X148.062Y-101.23
X148.189Y-93.356
X148.951Y-58.685
X149.332Y-38.111
X149.738Y-76.694
X151.364Y-89.292
X151.491Y-43.826
X151.745Y-64.146
X153.142Y-115.327
X153.777Y-41.286
X153.904Y-53.097
X153.904Y-123.201
X154.793Y-129.424
X155.047Y-70.877
X155.53Y-74.611
X156.825Y-47.509
X157.333Y-105.548
X157.333Y-110.628
X157.46Y-108.088
X158.578Y-74.56
X158.73Y-89.292
X160.0Y-81.799
X160.0Y-97.928
X161.524Y-128.916
X162.159Y-56.018
X162.54Y-100.468
X163.556Y-72.934
X163.937Y-38.492
X164.699Y-95.388
X164.953Y-103.008
X165.334Y-51.7
X166.35Y-122.439
X166.604Y-113.549
X166.858Y-78.624
X167.112Y-61.225
X167.239Y-107.453
X167.62Y-110.12
X168.001Y-104.913
X168.255Y-44.461
X169.906Y-129.932
X171.43Y-55.51
X172.954Y-37.095
X173.97Y-48.906
X175.24Y-61.479
X175.621Y-38.238
X175.621Y-101.992
X175.621Y-128.662
X175.875Y-76.973
X176.002Y-89.8
X176.383Y-68.972
X176.891Y-41.159
X176.891Y-118.883
X177.018Y-124.598
T2
X139.077Y-38.111
X141.077Y-38.111
X143.077Y-38.111
X154.793Y-38.111
X156.793Y-38.111
X158.793Y-38.111
T3
X103.104Y-42.302
X103.104Y-44.842
X103.104Y-47.382
X103.104Y-49.922
X103.104Y-52.462
X103.104Y-55.002
X103.104Y-57.542
X103.104Y-60.082
X103.104Y-62.622
X103.104Y-65.162
X103.104Y-67.702
X103.104Y-70.242
X103.104Y-72.782
X103.104Y-75.322
X103.104Y-77.862
X103.104Y-80.402
X103.104Y-82.942
X103.104Y-85.482
X103.104Y-88.022
X103.104Y-90.562
X123.424Y-42.302
X123.424Y-44.842
X123.424Y-47.382
X123.424Y-49.922
X123.424Y-52.462
X123.424Y-55.002
X123.424Y-57.542
X123.424Y-60.082
X123.424Y-62.622
X123.424Y-65.162
X123.424Y-67.702
X123.424Y-70.242
X123.424Y-72.782
X123.424Y-75.322
X123.424Y-77.862
X123.424Y-80.402
X123.424Y-82.942
X123.424Y-85.482
X123.424Y-88.022
X123.424Y-90.562
T4
X87.61Y-59.32
X87.61Y-61.86
X87.61Y-64.4
X87.61Y-66.94
X87.61Y-69.48
X87.61Y-72.02
X87.61Y-74.56
X87.61Y-77.1
X87.61Y-79.64
X87.61Y-82.18
X87.61Y-84.72
X87.61Y-87.26
X87.61Y-89.8
X87.61Y-92.34
X87.61Y-94.88
X87.61Y-97.42
X87.61Y-99.96
X87.61Y-102.5
X87.61Y-105.04
X87.61Y-107.58
X90.15Y-59.32
X90.15Y-61.86
X90.15Y-64.4
X90.15Y-66.94
X90.15Y-69.48
X90.15Y-72.02
X90.15Y-74.56
X90.15Y-77.1
X90.15Y-79.64
X90.15Y-82.18
X90.15Y-84.72
X90.15Y-87.26
X90.15Y-89.8
X90.15Y-92.34
X90.15Y-94.88
X90.15Y-97.42
X90.15Y-99.96
X90.15Y-102.5
X90.15Y-105.04
X90.15Y-107.58
X170.16Y-65.67
X170.16Y-68.21
X170.16Y-70.75
X170.16Y-73.29
X170.16Y-75.83
X170.16Y-78.37
X170.16Y-80.91
X170.16Y-83.45
X170.16Y-85.99
X170.16Y-88.53
X170.16Y-91.07
X170.16Y-93.61
X170.16Y-96.15
X170.16Y-98.69
X170.16Y-101.23
X170.16Y-103.77
X170.16Y-106.31
X170.16Y-108.85
X170.16Y-111.39
X170.16Y-113.93
X172.7Y-65.67
X172.7Y-68.21
X172.7Y-70.75
X172.7Y-73.29
X172.7Y-75.83
X172.7Y-78.37
X172.7Y-80.91
X172.7Y-83.45
X172.7Y-85.99
X172.7Y-88.53
X172.7Y-91.07
X172.7Y-93.61
X172.7Y-96.15
X172.7Y-98.69
X172.7Y-101.23
X172.7Y-103.77
X172.7Y-106.31
X172.7Y-108.85
X172.7Y-111.39
X172.7Y-113.93
T5
X136.877Y-38.111
X145.277Y-38.111
X152.593Y-38.111
X160.993Y-38.111
T6
X88.0Y-41.0
X88.0Y-126.0
X173.0Y-41.0
X173.0Y-126.0
M30
