G04 #@! TF.GenerationSoftware,KiCad,Pcbnew,9.0.9*
G04 #@! TF.CreationDate,2026-08-14T07:26:16+09:00*
G04 #@! TF.ProjectId,StackSlot,53746163-6b53-46c6-9f74-2e6b69636164,rev?*
G04 #@! TF.SameCoordinates,Original*
G04 #@! TF.FileFunction,Soldermask,Top*
G04 #@! TF.FilePolarity,Negative*
%FSLAX46Y46*%
G04 Gerber Fmt 4.6, Leading zero omitted, Abs format (unit mm)*
G04 Created by KiCad (PCBNEW 9.0.9) date 2026-08-14 07:26:16*
%MOMM*%
%LPD*%
G01*
G04 APERTURE LIST*
G04 Aperture macros list*
%AMRoundRect*
0 Rectangle with rounded corners*
0 $1 Rounding radius*
0 $2 $3 $4 $5 $6 $7 $8 $9 X,Y pos of 4 corners*
0 Add a 4 corners polygon primitive as box body*
4,1,4,$2,$3,$4,$5,$6,$7,$8,$9,$2,$3,0*
0 Add four circle primitives for the rounded corners*
1,1,$1+$1,$2,$3*
1,1,$1+$1,$4,$5*
1,1,$1+$1,$6,$7*
1,1,$1+$1,$8,$9*
0 Add four rect primitives between the rounded corners*
20,1,$1+$1,$2,$3,$4,$5,0*
20,1,$1+$1,$4,$5,$6,$7,0*
20,1,$1+$1,$6,$7,$8,$9,0*
20,1,$1+$1,$8,$9,$2,$3,0*%
G04 Aperture macros list end*
%ADD10RoundRect,0.250000X-0.262500X-0.450000X0.262500X-0.450000X0.262500X0.450000X-0.262500X0.450000X0*%
%ADD11RoundRect,0.100000X0.100000X-0.850000X0.100000X0.850000X-0.100000X0.850000X-0.100000X-0.850000X0*%
%ADD12C,3.200000*%
%ADD13RoundRect,0.140000X0.170000X-0.140000X0.170000X0.140000X-0.170000X0.140000X-0.170000X-0.140000X0*%
%ADD14RoundRect,0.140000X-0.170000X0.140000X-0.170000X-0.140000X0.170000X-0.140000X0.170000X0.140000X0*%
%ADD15R,1.700000X1.700000*%
%ADD16RoundRect,0.140000X-0.140000X-0.170000X0.140000X-0.170000X0.140000X0.170000X-0.140000X0.170000X0*%
%ADD17C,2.000000*%
%ADD18C,1.700000*%
%ADD19RoundRect,0.250000X0.262500X0.450000X-0.262500X0.450000X-0.262500X-0.450000X0.262500X-0.450000X0*%
%ADD20RoundRect,0.250000X0.325000X1.100000X-0.325000X1.100000X-0.325000X-1.100000X0.325000X-1.100000X0*%
%ADD21RoundRect,0.150000X0.150000X-0.825000X0.150000X0.825000X-0.150000X0.825000X-0.150000X-0.825000X0*%
G04 APERTURE END LIST*
D10*
X143967000Y-101883000D03*
X145792000Y-101883000D03*
D11*
X148878000Y-94009000D03*
X149528000Y-94009000D03*
X150178000Y-94009000D03*
X150828000Y-94009000D03*
X151478000Y-94009000D03*
X152128000Y-94009000D03*
X152778000Y-94009000D03*
X153428000Y-94009000D03*
X154078000Y-94009000D03*
X154728000Y-94009000D03*
X155378000Y-94009000D03*
X156028000Y-94009000D03*
X156028000Y-87009000D03*
X155378000Y-87009000D03*
X154728000Y-87009000D03*
X154078000Y-87009000D03*
X153428000Y-87009000D03*
X152778000Y-87009000D03*
X152128000Y-87009000D03*
X151478000Y-87009000D03*
X150828000Y-87009000D03*
X150178000Y-87009000D03*
X149528000Y-87009000D03*
X148878000Y-87009000D03*
X104517000Y-94009000D03*
X105167000Y-94009000D03*
X105817000Y-94009000D03*
X106467000Y-94009000D03*
X107117000Y-94009000D03*
X107767000Y-94009000D03*
X108417000Y-94009000D03*
X109067000Y-94009000D03*
X109717000Y-94009000D03*
X110367000Y-94009000D03*
X111017000Y-94009000D03*
X111667000Y-94009000D03*
X111667000Y-87009000D03*
X111017000Y-87009000D03*
X110367000Y-87009000D03*
X109717000Y-87009000D03*
X109067000Y-87009000D03*
X108417000Y-87009000D03*
X107767000Y-87009000D03*
X107117000Y-87009000D03*
X106467000Y-87009000D03*
X105817000Y-87009000D03*
X105167000Y-87009000D03*
X104517000Y-87009000D03*
D12*
X172800000Y-118600000D03*
D13*
X124252800Y-86945200D03*
X124252800Y-85985200D03*
D14*
X113432400Y-93983600D03*
X113432400Y-94943600D03*
D15*
X164943600Y-51413200D03*
D13*
X113483200Y-87024000D03*
X113483200Y-86064000D03*
D14*
X124252800Y-93932800D03*
X124252800Y-94892800D03*
X102586600Y-94034400D03*
X102586600Y-94994400D03*
D13*
X135428800Y-87024000D03*
X135428800Y-86064000D03*
D11*
X137448000Y-94009000D03*
X138098000Y-94009000D03*
X138748000Y-94009000D03*
X139398000Y-94009000D03*
X140048000Y-94009000D03*
X140698000Y-94009000D03*
X141348000Y-94009000D03*
X141998000Y-94009000D03*
X142648000Y-94009000D03*
X143298000Y-94009000D03*
X143948000Y-94009000D03*
X144598000Y-94009000D03*
X144598000Y-87009000D03*
X143948000Y-87009000D03*
X143298000Y-87009000D03*
X142648000Y-87009000D03*
X141998000Y-87009000D03*
X141348000Y-87009000D03*
X140698000Y-87009000D03*
X140048000Y-87009000D03*
X139398000Y-87009000D03*
X138748000Y-87009000D03*
X138098000Y-87009000D03*
X137448000Y-87009000D03*
D10*
X143967000Y-103915000D03*
X145792000Y-103915000D03*
D12*
X87800000Y-118600000D03*
D15*
X164943600Y-58271200D03*
D16*
X143963200Y-112932000D03*
X144923200Y-112932000D03*
D17*
X160270000Y-39780000D03*
X160270000Y-44860000D03*
X157730000Y-39780000D03*
X157730000Y-44860000D03*
X155190000Y-39780000D03*
X155190000Y-44860000D03*
X152650000Y-39780000D03*
X152650000Y-44860000D03*
X150110000Y-39780000D03*
X150110000Y-44860000D03*
X147570000Y-39780000D03*
X147570000Y-44860000D03*
X145030000Y-39780000D03*
X145030000Y-44860000D03*
X142490000Y-39780000D03*
X142490000Y-44860000D03*
X139950000Y-39780000D03*
X139950000Y-44860000D03*
X137410000Y-39780000D03*
X137410000Y-44860000D03*
X134870000Y-39780000D03*
X134870000Y-44860000D03*
X132330000Y-39780000D03*
X132330000Y-44860000D03*
X129790000Y-39780000D03*
X129790000Y-44860000D03*
X127250000Y-39780000D03*
X127250000Y-44860000D03*
X124710000Y-39780000D03*
X124710000Y-44860000D03*
X122170000Y-39780000D03*
X122170000Y-44860000D03*
X119630000Y-39780000D03*
X119630000Y-44860000D03*
X117090000Y-39780000D03*
X117090000Y-44860000D03*
X114550000Y-39780000D03*
X114550000Y-44860000D03*
X112010000Y-39780000D03*
X112010000Y-44860000D03*
X109470000Y-39780000D03*
X109470000Y-44860000D03*
X106930000Y-39780000D03*
X106930000Y-44860000D03*
X104390000Y-39780000D03*
X104390000Y-44860000D03*
X101850000Y-39780000D03*
X101850000Y-44860000D03*
X99310000Y-39780000D03*
X99310000Y-44860000D03*
D11*
X126234000Y-94009000D03*
X126884000Y-94009000D03*
X127534000Y-94009000D03*
X128184000Y-94009000D03*
X128834000Y-94009000D03*
X129484000Y-94009000D03*
X130134000Y-94009000D03*
X130784000Y-94009000D03*
X131434000Y-94009000D03*
X132084000Y-94009000D03*
X132734000Y-94009000D03*
X133384000Y-94009000D03*
X133384000Y-87009000D03*
X132734000Y-87009000D03*
X132084000Y-87009000D03*
X131434000Y-87009000D03*
X130784000Y-87009000D03*
X130134000Y-87009000D03*
X129484000Y-87009000D03*
X128834000Y-87009000D03*
X128184000Y-87009000D03*
X127534000Y-87009000D03*
X126884000Y-87009000D03*
X126234000Y-87009000D03*
D12*
X87800000Y-33600000D03*
D15*
X87410000Y-51920000D03*
D18*
X89950000Y-51920000D03*
X87410000Y-54460000D03*
X89950000Y-54460000D03*
X87410000Y-57000000D03*
X89950000Y-57000000D03*
X87410000Y-59540000D03*
X89950000Y-59540000D03*
X87410000Y-62080000D03*
X89950000Y-62080000D03*
X87410000Y-64620000D03*
X89950000Y-64620000D03*
X87410000Y-67160000D03*
X89950000Y-67160000D03*
X87410000Y-69700000D03*
X89950000Y-69700000D03*
X87410000Y-72240000D03*
X89950000Y-72240000D03*
X87410000Y-74780000D03*
X89950000Y-74780000D03*
X87410000Y-77320000D03*
X89950000Y-77320000D03*
X87410000Y-79860000D03*
X89950000Y-79860000D03*
X87410000Y-82400000D03*
X89950000Y-82400000D03*
X87410000Y-84940000D03*
X89950000Y-84940000D03*
X87410000Y-87480000D03*
X89950000Y-87480000D03*
X87410000Y-90020000D03*
X89950000Y-90020000D03*
X87410000Y-92560000D03*
X89950000Y-92560000D03*
X87410000Y-95100000D03*
X89950000Y-95100000D03*
X87410000Y-97640000D03*
X89950000Y-97640000D03*
X87410000Y-100180000D03*
X89950000Y-100180000D03*
D19*
X161536200Y-103889600D03*
X159711200Y-103889600D03*
D13*
X102612000Y-87018800D03*
X102612000Y-86058800D03*
D17*
X160270000Y-68990000D03*
X160270000Y-74070000D03*
X157730000Y-68990000D03*
X157730000Y-74070000D03*
X155190000Y-68990000D03*
X155190000Y-74070000D03*
X152650000Y-68990000D03*
X152650000Y-74070000D03*
X150110000Y-68990000D03*
X150110000Y-74070000D03*
X147570000Y-68990000D03*
X147570000Y-74070000D03*
X145030000Y-68990000D03*
X145030000Y-74070000D03*
X142490000Y-68990000D03*
X142490000Y-74070000D03*
X139950000Y-68990000D03*
X139950000Y-74070000D03*
X137410000Y-68990000D03*
X137410000Y-74070000D03*
X134870000Y-68990000D03*
X134870000Y-74070000D03*
X132330000Y-68990000D03*
X132330000Y-74070000D03*
X129790000Y-68990000D03*
X129790000Y-74070000D03*
X127250000Y-68990000D03*
X127250000Y-74070000D03*
X124710000Y-68990000D03*
X124710000Y-74070000D03*
X122170000Y-68990000D03*
X122170000Y-74070000D03*
X119630000Y-68990000D03*
X119630000Y-74070000D03*
X117090000Y-68990000D03*
X117090000Y-74070000D03*
X114550000Y-68990000D03*
X114550000Y-74070000D03*
X112010000Y-68990000D03*
X112010000Y-74070000D03*
X109470000Y-68990000D03*
X109470000Y-74070000D03*
X106930000Y-68990000D03*
X106930000Y-74070000D03*
X104390000Y-68990000D03*
X104390000Y-74070000D03*
X101850000Y-68990000D03*
X101850000Y-74070000D03*
X99310000Y-68990000D03*
X99310000Y-74070000D03*
D19*
X161536200Y-101857600D03*
X159711200Y-101857600D03*
D15*
X169960000Y-58270000D03*
D18*
X172500000Y-58270000D03*
X169960000Y-60810000D03*
X172500000Y-60810000D03*
X169960000Y-63350000D03*
X172500000Y-63350000D03*
X169960000Y-65890000D03*
X172500000Y-65890000D03*
X169960000Y-68430000D03*
X172500000Y-68430000D03*
X169960000Y-70970000D03*
X172500000Y-70970000D03*
X169960000Y-73510000D03*
X172500000Y-73510000D03*
X169960000Y-76050000D03*
X172500000Y-76050000D03*
X169960000Y-78590000D03*
X172500000Y-78590000D03*
X169960000Y-81130000D03*
X172500000Y-81130000D03*
X169960000Y-83670000D03*
X172500000Y-83670000D03*
X169960000Y-86210000D03*
X172500000Y-86210000D03*
X169960000Y-88750000D03*
X172500000Y-88750000D03*
X169960000Y-91290000D03*
X172500000Y-91290000D03*
X169960000Y-93830000D03*
X172500000Y-93830000D03*
X169960000Y-96370000D03*
X172500000Y-96370000D03*
X169960000Y-98910000D03*
X172500000Y-98910000D03*
X169960000Y-101450000D03*
X172500000Y-101450000D03*
X169960000Y-103990000D03*
X172500000Y-103990000D03*
X169960000Y-106530000D03*
X172500000Y-106530000D03*
D14*
X146655600Y-93882000D03*
X146655600Y-94842000D03*
D20*
X172745000Y-50067000D03*
X169795000Y-50067000D03*
D10*
X143967000Y-105947000D03*
X145792000Y-105947000D03*
D12*
X172800000Y-33600000D03*
D11*
X115312000Y-94009000D03*
X115962000Y-94009000D03*
X116612000Y-94009000D03*
X117262000Y-94009000D03*
X117912000Y-94009000D03*
X118562000Y-94009000D03*
X119212000Y-94009000D03*
X119862000Y-94009000D03*
X120512000Y-94009000D03*
X121162000Y-94009000D03*
X121812000Y-94009000D03*
X122462000Y-94009000D03*
X122462000Y-87009000D03*
X121812000Y-87009000D03*
X121162000Y-87009000D03*
X120512000Y-87009000D03*
X119862000Y-87009000D03*
X119212000Y-87009000D03*
X118562000Y-87009000D03*
X117912000Y-87009000D03*
X117262000Y-87009000D03*
X116612000Y-87009000D03*
X115962000Y-87009000D03*
X115312000Y-87009000D03*
D14*
X135378000Y-93882000D03*
X135378000Y-94842000D03*
D21*
X148967000Y-112932000D03*
X150237000Y-112932000D03*
X151507000Y-112932000D03*
X152777000Y-112932000D03*
X154047000Y-112932000D03*
X155317000Y-112932000D03*
X156587000Y-112932000D03*
X156587000Y-107982000D03*
X155317000Y-107982000D03*
X154047000Y-107982000D03*
X152777000Y-107982000D03*
X151507000Y-107982000D03*
X150237000Y-107982000D03*
X148967000Y-107982000D03*
D13*
X146655600Y-87024000D03*
X146655600Y-86064000D03*
D19*
X161536200Y-105921600D03*
X159711200Y-105921600D03*
M02*
