M48
; DRILL file {KiCad 9.0.9} date 2026-08-14T07:26:30+0900
; FORMAT={-:-/ absolute / metric / decimal}
; #@! TF.CreationDate,2026-08-14T07:26:30+09:00
; #@! TF.GenerationSoftware,Kicad,Pcbnew,9.0.9
; #@! TF.FileFunction,MixedPlating,1,2
FMAT,2
METRIC
; #@! TA.AperFunction,Plated,PTH,ViaDrill
T1C0.300
; #@! TA.AperFunction,Plated,PTH,ComponentDrill
T2C1.000
; #@! TA.AperFunction,Plated,PTH,ComponentDrill
T3C1.200
; #@! TA.AperFunction,NonPlated,NPTH,ComponentDrill
T4C3.200
%
G90
G05
T1
X84.019Y-118.622
X84.07Y-33.735
X84.222Y-73.105
X84.222Y-93.831
X84.375Y-52.277
X84.781Y-86.11
X84.832Y-42.523
X84.883Y-64.774
X85.391Y-107.75
X85.492Y-30.839
X85.492Y-121.365
X86.254Y-112.322
X88.236Y-122.533
X88.591Y-47.197
X88.642Y-104.398
X89.709Y-29.925
X91.08Y-37.951
X91.639Y-113.796
X92.3Y-44.911
X92.554Y-41.152
X92.706Y-101.197
X92.757Y-86.414
X93.062Y-84.179
X93.112Y-99.47
X93.214Y-81.741
X93.722Y-49.432
X94.84Y-82.858
X94.941Y-98.86
X95.348Y-119.688
X95.602Y-51.312
X95.779Y-76.407
X96.364Y-30.534
X96.618Y-103.636
X96.77Y-65.815
X96.922Y-98.2
X97.176Y-71.682
X97.634Y-112.932
X98.243Y-64.977
X98.396Y-51.87
X98.904Y-97.54
X99.259Y-89.869
X100.834Y-96.93
X100.885Y-36.072
X101.647Y-42.066
X101.799Y-93.069
X102.616Y-84.074
X103.272Y-94.034
X104.034Y-52.734
X104.288Y-65.18
X104.339Y-71.682
X104.441Y-42.523
X105.863Y-84.535
X105.965Y-81.893
X106.219Y-36.173
X106.32Y-122.432
X106.473Y-100.029
X107.032Y-65.586
X107.082Y-51.413
X107.184Y-58.83
X107.743Y-99.47
X108.241Y-42.32
X109.064Y-98.911
X110.384Y-98.352
X112.467Y-86.618
X112.588Y-94.93
X113.178Y-29.874
X113.331Y-106.226
X114.042Y-102.467
X114.144Y-94.034
X116.633Y-84.535
X116.633Y-98.987
X116.658Y-83.036
X117.039Y-34.294
X117.903Y-97.794
X118.716Y-121.466
X119.224Y-97.235
X120.494Y-96.676
X120.849Y-77.575
X123.237Y-94.898
X123.288Y-86.821
X124.151Y-35.513
X124.71Y-103.991
X125.015Y-94.034
X126.082Y-82.096
X127.402Y-29.874
X127.504Y-84.535
X127.555Y-96.117
X128.723Y-107.852
X128.825Y-95.558
X128.825Y-121.924
X130.095Y-92.561
X131.434Y-92.002
X134.174Y-87.009
X134.21Y-94.847
X135.124Y-110.646
X136.14Y-94.009
X136.14Y-102.467
X137.512Y-95.965
X137.867Y-109.071
X138.68Y-84.535
X138.731Y-92.51
X138.832Y-34.649
X138.832Y-81.334
X138.985Y-103.788
X139.391Y-91.952
X140.712Y-91.393
X141.372Y-122.686
X141.88Y-49.127
X141.982Y-90.834
X142.49Y-78.286
X142.592Y-64.977
X142.642Y-90.275
X143.303Y-29.772
X143.303Y-89.716
X145.513Y-87.049
X145.767Y-94.72
X146.554Y-110.646
X146.706Y-91.342
X146.706Y-92.104
X147.214Y-107.982
X147.519Y-94.009
X148.434Y-121.009
X148.637Y-82.249
X148.942Y-84.535
X149.246Y-88.599
X149.958Y-35.716
X150.237Y-105.947
X151.532Y-105.972
X152.294Y-77.982
X152.701Y-71.479
X152.701Y-82.401
X152.777Y-103.915
X154.047Y-105.947
X154.479Y-90.682
X155.241Y-90.682
X155.317Y-101.883
X155.444Y-78.947
X155.698Y-30.026
X156.003Y-90.682
X156.003Y-91.596
X156.104Y-71.987
X156.104Y-80.877
X156.46Y-67.314
X156.562Y-64.977
X156.917Y-78.845
X156.968Y-101.858
X156.968Y-103.89
X156.968Y-105.922
X157.273Y-49.076
X157.882Y-91.596
X158.289Y-71.276
X158.39Y-122.584
X159.508Y-90.986
X159.559Y-63.453
X159.914Y-115.167
X160.168Y-34.141
X160.422Y-71.073
X160.676Y-77.677
X160.676Y-93.222
X160.676Y-94.085
X160.676Y-94.949
X160.676Y-95.812
X160.676Y-96.727
X160.88Y-64.977
X161.337Y-90.275
X161.438Y-108.868
X162.048Y-49.991
X162.556Y-80.572
X163.14Y-85.424
X163.369Y-65.637
X163.724Y-98.606
X164.436Y-40.593
X164.588Y-94.085
X164.588Y-94.949
X164.588Y-95.812
X164.588Y-96.676
X165.299Y-118.418
X165.706Y-30.636
X165.858Y-106.125
X166.061Y-98.86
X166.671Y-43.641
X166.823Y-101.451
X167.23Y-111.205
X167.433Y-48.467
X167.941Y-99.216
X170.328Y-37.443
X172.919Y-29.772
X172.919Y-122.584
X175.561Y-30.585
X175.612Y-121.619
X175.713Y-41.71
X176.831Y-33.481
X176.882Y-118.876
X176.932Y-109.935
T2
X87.41Y-51.92
X87.41Y-54.46
X87.41Y-57.0
X87.41Y-59.54
X87.41Y-62.08
X87.41Y-64.62
X87.41Y-67.16
X87.41Y-69.7
X87.41Y-72.24
X87.41Y-74.78
X87.41Y-77.32
X87.41Y-79.86
X87.41Y-82.4
X87.41Y-84.94
X87.41Y-87.48
X87.41Y-90.02
X87.41Y-92.56
X87.41Y-95.1
X87.41Y-97.64
X87.41Y-100.18
X89.95Y-51.92
X89.95Y-54.46
X89.95Y-57.0
X89.95Y-59.54
X89.95Y-62.08
X89.95Y-64.62
X89.95Y-67.16
X89.95Y-69.7
X89.95Y-72.24
X89.95Y-74.78
X89.95Y-77.32
X89.95Y-79.86
X89.95Y-82.4
X89.95Y-84.94
X89.95Y-87.48
X89.95Y-90.02
X89.95Y-92.56
X89.95Y-95.1
X89.95Y-97.64
X89.95Y-100.18
X164.944Y-51.413
X164.944Y-58.271
X169.96Y-58.27
X169.96Y-60.81
X169.96Y-63.35
X169.96Y-65.89
X169.96Y-68.43
X169.96Y-70.97
X169.96Y-73.51
X169.96Y-76.05
X169.96Y-78.59
X169.96Y-81.13
X169.96Y-83.67
X169.96Y-86.21
X169.96Y-88.75
X169.96Y-91.29
X169.96Y-93.83
X169.96Y-96.37
X169.96Y-98.91
X169.96Y-101.45
X169.96Y-103.99
X169.96Y-106.53
X172.5Y-58.27
X172.5Y-60.81
X172.5Y-63.35
X172.5Y-65.89
X172.5Y-68.43
X172.5Y-70.97
X172.5Y-73.51
X172.5Y-76.05
X172.5Y-78.59
X172.5Y-81.13
X172.5Y-83.67
X172.5Y-86.21
X172.5Y-88.75
X172.5Y-91.29
X172.5Y-93.83
X172.5Y-96.37
X172.5Y-98.91
X172.5Y-101.45
X172.5Y-103.99
X172.5Y-106.53
T3
X99.31Y-39.78
X99.31Y-44.86
X99.31Y-68.99
X99.31Y-74.07
X101.85Y-39.78
X101.85Y-44.86
X101.85Y-68.99
X101.85Y-74.07
X104.39Y-39.78
X104.39Y-44.86
X104.39Y-68.99
X104.39Y-74.07
X106.93Y-39.78
X106.93Y-44.86
X106.93Y-68.99
X106.93Y-74.07
X109.47Y-39.78
X109.47Y-44.86
X109.47Y-68.99
X109.47Y-74.07
X112.01Y-39.78
X112.01Y-44.86
X112.01Y-68.99
X112.01Y-74.07
X114.55Y-39.78
X114.55Y-44.86
X114.55Y-68.99
X114.55Y-74.07
X117.09Y-39.78
X117.09Y-44.86
X117.09Y-68.99
X117.09Y-74.07
X119.63Y-39.78
X119.63Y-44.86
X119.63Y-68.99
X119.63Y-74.07
X122.17Y-39.78
X122.17Y-44.86
X122.17Y-68.99
X122.17Y-74.07
X124.71Y-39.78
X124.71Y-44.86
X124.71Y-68.99
X124.71Y-74.07
X127.25Y-39.78
X127.25Y-44.86
X127.25Y-68.99
X127.25Y-74.07
X129.79Y-39.78
X129.79Y-44.86
X129.79Y-68.99
X129.79Y-74.07
X132.33Y-39.78
X132.33Y-44.86
X132.33Y-68.99
X132.33Y-74.07
X134.87Y-39.78
X134.87Y-44.86
X134.87Y-68.99
X134.87Y-74.07
X137.41Y-39.78
X137.41Y-44.86
X137.41Y-68.99
X137.41Y-74.07
X139.95Y-39.78
X139.95Y-44.86
X139.95Y-68.99
X139.95Y-74.07
X142.49Y-39.78
X142.49Y-44.86
X142.49Y-68.99
X142.49Y-74.07
X145.03Y-39.78
X145.03Y-44.86
X145.03Y-68.99
X145.03Y-74.07
X147.57Y-39.78
X147.57Y-44.86
X147.57Y-68.99
X147.57Y-74.07
X150.11Y-39.78
X150.11Y-44.86
X150.11Y-68.99
X150.11Y-74.07
X152.65Y-39.78
X152.65Y-44.86
X152.65Y-68.99
X152.65Y-74.07
X155.19Y-39.78
X155.19Y-44.86
X155.19Y-68.99
X155.19Y-74.07
X157.73Y-39.78
X157.73Y-44.86
X157.73Y-68.99
X157.73Y-74.07
X160.27Y-39.78
X160.27Y-44.86
X160.27Y-68.99
X160.27Y-74.07
T4
X87.8Y-33.6
X87.8Y-118.6
X172.8Y-33.6
X172.8Y-118.6
M30
