G04 #@! TF.GenerationSoftware,KiCad,Pcbnew,9.0.9*
G04 #@! TF.CreationDate,2026-08-16T14:09:21+09:00*
G04 #@! TF.ProjectId,StackCPU,53746163-6b43-4505-952e-6b696361645f,rev?*
G04 #@! TF.SameCoordinates,Original*
G04 #@! TF.FileFunction,Soldermask,Top*
G04 #@! TF.FilePolarity,Negative*
%FSLAX46Y46*%
G04 Gerber Fmt 4.6, Leading zero omitted, Abs format (unit mm)*
G04 Created by KiCad (PCBNEW 9.0.9) date 2026-08-16 14:09:21*
%MOMM*%
%LPD*%
G01*
G04 APERTURE LIST*
G04 Aperture macros list*
%AMRoundRect*
0 Rectangle with rounded corners*
0 $1 Rounding radius*
0 $2 $3 $4 $5 $6 $7 $8 $9 X,Y pos of 4 corners*
0 Add a 4 corners polygon primitive as box body*
4,1,4,$2,$3,$4,$5,$6,$7,$8,$9,$2,$3,0*
0 Add four circle primitives for the rounded corners*
1,1,$1+$1,$2,$3*
1,1,$1+$1,$4,$5*
1,1,$1+$1,$6,$7*
1,1,$1+$1,$8,$9*
0 Add four rect primitives between the rounded corners*
20,1,$1+$1,$2,$3,$4,$5,0*
20,1,$1+$1,$4,$5,$6,$7,0*
20,1,$1+$1,$6,$7,$8,$9,0*
20,1,$1+$1,$8,$9,$2,$3,0*%
G04 Aperture macros list end*
%ADD10R,1.000000X0.400000*%
%ADD11RoundRect,0.075000X-0.075000X0.700000X-0.075000X-0.700000X0.075000X-0.700000X0.075000X0.700000X0*%
%ADD12RoundRect,0.200000X-0.275000X0.200000X-0.275000X-0.200000X0.275000X-0.200000X0.275000X0.200000X0*%
%ADD13RoundRect,0.140000X0.140000X0.170000X-0.140000X0.170000X-0.140000X-0.170000X0.140000X-0.170000X0*%
%ADD14RoundRect,0.135000X-0.135000X-0.185000X0.135000X-0.185000X0.135000X0.185000X-0.135000X0.185000X0*%
%ADD15RoundRect,0.250000X0.250000X0.475000X-0.250000X0.475000X-0.250000X-0.475000X0.250000X-0.475000X0*%
%ADD16C,3.200000*%
%ADD17RoundRect,0.135000X0.135000X0.185000X-0.135000X0.185000X-0.135000X-0.185000X0.135000X-0.185000X0*%
%ADD18R,0.700000X1.300000*%
%ADD19R,1.200000X1.400000*%
%ADD20R,1.200000X2.000000*%
%ADD21R,1.700000X1.700000*%
%ADD22C,1.700000*%
%ADD23O,1.800000X1.800000*%
%ADD24O,1.500000X1.500000*%
%ADD25O,1.700000X1.700000*%
%ADD26R,3.500000X1.700000*%
%ADD27R,1.550000X0.600000*%
%ADD28RoundRect,0.140000X-0.140000X-0.170000X0.140000X-0.170000X0.140000X0.170000X-0.140000X0.170000X0*%
%ADD29RoundRect,0.140000X0.170000X-0.140000X0.170000X0.140000X-0.170000X0.140000X-0.170000X-0.140000X0*%
%ADD30R,1.000000X1.600000*%
%ADD31RoundRect,0.162500X0.162500X-0.650000X0.162500X0.650000X-0.162500X0.650000X-0.162500X-0.650000X0*%
%ADD32RoundRect,0.135000X0.185000X-0.135000X0.185000X0.135000X-0.185000X0.135000X-0.185000X-0.135000X0*%
%ADD33RoundRect,0.140000X-0.170000X0.140000X-0.170000X-0.140000X0.170000X-0.140000X0.170000X0.140000X0*%
%ADD34R,0.200000X0.700000*%
%ADD35R,0.190000X0.700000*%
%ADD36RoundRect,0.135000X-0.185000X0.135000X-0.185000X-0.135000X0.185000X-0.135000X0.185000X0.135000X0*%
%ADD37RoundRect,0.250000X1.100000X-0.325000X1.100000X0.325000X-1.100000X0.325000X-1.100000X-0.325000X0*%
%ADD38O,3.000000X2.200000*%
%ADD39R,4.300000X2.000000*%
%ADD40R,0.210000X0.700000*%
%ADD41R,0.700000X1.200000*%
%ADD42R,0.800000X1.200000*%
%ADD43R,0.900000X1.200000*%
%ADD44O,1.000000X1.700000*%
%ADD45C,1.500000*%
%ADD46C,2.000000*%
%ADD47C,1.270000*%
%ADD48R,1.270000X1.270000*%
G04 APERTURE END LIST*
D10*
X83525000Y-45950000D03*
X83525000Y-41450000D03*
X85225000Y-45375000D03*
X85225000Y-42025000D03*
D11*
X146400000Y-71380000D03*
X145900000Y-71380000D03*
X145400000Y-71380000D03*
X144900000Y-71380000D03*
X144400000Y-71380000D03*
X143900000Y-71380000D03*
X143400000Y-71380000D03*
X142900000Y-71380000D03*
X142400000Y-71380000D03*
X141900000Y-71380000D03*
X141400000Y-71380000D03*
X140900000Y-71380000D03*
X140400000Y-71380000D03*
X139900000Y-71380000D03*
X139400000Y-71380000D03*
X138900000Y-71380000D03*
X138900000Y-84230000D03*
X139400000Y-84230000D03*
X139900000Y-84230000D03*
X140400000Y-84230000D03*
X140900000Y-84230000D03*
X141400000Y-84230000D03*
X141900000Y-84230000D03*
X142400000Y-84230000D03*
X142900000Y-84230000D03*
X143400000Y-84230000D03*
X143900000Y-84230000D03*
X144400000Y-84230000D03*
X144900000Y-84230000D03*
X145400000Y-84230000D03*
X145900000Y-84230000D03*
X146400000Y-84230000D03*
D12*
X160550000Y-38100000D03*
X160550000Y-39750000D03*
D13*
X144014000Y-109122000D03*
X143054000Y-109122000D03*
D14*
X134608000Y-99470000D03*
X135628000Y-99470000D03*
D15*
X127240000Y-58060000D03*
X125340000Y-58060000D03*
D16*
X87800000Y-33600000D03*
X87800000Y-118600000D03*
X172800000Y-33600000D03*
X172800000Y-118600000D03*
D13*
X152975000Y-109122000D03*
X152015000Y-109122000D03*
D17*
X135628000Y-100613000D03*
X134608000Y-100613000D03*
D18*
X120672000Y-108650000D03*
X119572000Y-108650000D03*
X118472000Y-108650000D03*
X117372000Y-108650000D03*
X116272000Y-108650000D03*
X115172000Y-108650000D03*
X114072000Y-108650000D03*
X112972000Y-108650000D03*
D19*
X110772000Y-109500000D03*
D20*
X110772000Y-119200000D03*
D18*
X111872000Y-108650000D03*
D19*
X125452000Y-109500000D03*
D20*
X125472000Y-119200000D03*
D21*
X87410000Y-51910000D03*
D22*
X89950000Y-51910000D03*
X87410000Y-54450000D03*
X89950000Y-54450000D03*
X87410000Y-56990000D03*
X89950000Y-56990000D03*
X87410000Y-59530000D03*
X89950000Y-59530000D03*
X87410000Y-62070000D03*
X89950000Y-62070000D03*
X87410000Y-64610000D03*
X89950000Y-64610000D03*
X87410000Y-67150000D03*
X89950000Y-67150000D03*
X87410000Y-69690000D03*
X89950000Y-69690000D03*
X87410000Y-72230000D03*
X89950000Y-72230000D03*
X87410000Y-74770000D03*
X89950000Y-74770000D03*
X87410000Y-77310000D03*
X89950000Y-77310000D03*
X87410000Y-79850000D03*
X89950000Y-79850000D03*
X87410000Y-82390000D03*
X89950000Y-82390000D03*
X87410000Y-84930000D03*
X89950000Y-84930000D03*
X87410000Y-87470000D03*
X89950000Y-87470000D03*
X87410000Y-90010000D03*
X89950000Y-90010000D03*
X87410000Y-92550000D03*
X89950000Y-92550000D03*
X87410000Y-95090000D03*
X89950000Y-95090000D03*
X87410000Y-97630000D03*
X89950000Y-97630000D03*
X87410000Y-100170000D03*
X89950000Y-100170000D03*
D17*
X135632000Y-105185000D03*
X134612000Y-105185000D03*
D14*
X120759000Y-105439000D03*
X121779000Y-105439000D03*
D17*
X135628000Y-102899000D03*
X134608000Y-102899000D03*
D14*
X120759000Y-102010000D03*
X121779000Y-102010000D03*
D17*
X135628000Y-101756000D03*
X134608000Y-101756000D03*
D13*
X144085000Y-115599000D03*
X143125000Y-115599000D03*
D17*
X157695000Y-62275000D03*
X156675000Y-62275000D03*
D23*
X105085000Y-30770000D03*
D24*
X105385000Y-33800000D03*
X110235000Y-33800000D03*
D23*
X110535000Y-30770000D03*
D25*
X98920000Y-30640000D03*
D26*
X98020000Y-30640000D03*
D25*
X98920000Y-33180000D03*
D26*
X98020000Y-33180000D03*
D21*
X98920000Y-35720000D03*
D26*
X98020000Y-35720000D03*
D25*
X98920000Y-38260000D03*
D26*
X98020000Y-38260000D03*
D25*
X98920000Y-40800000D03*
D26*
X98020000Y-40800000D03*
D25*
X98920000Y-43340000D03*
D26*
X98020000Y-43340000D03*
D25*
X98920000Y-45880000D03*
D26*
X98020000Y-45880000D03*
D21*
X98920000Y-48420000D03*
D26*
X98020000Y-48420000D03*
D25*
X98920000Y-50960000D03*
D26*
X98020000Y-50960000D03*
D25*
X98920000Y-53500000D03*
D26*
X98020000Y-53500000D03*
D25*
X98920000Y-56040000D03*
D26*
X98020000Y-56040000D03*
D25*
X98920000Y-58580000D03*
D26*
X98020000Y-58580000D03*
D21*
X98920000Y-61120000D03*
D26*
X98020000Y-61120000D03*
D25*
X98920000Y-63660000D03*
D26*
X98020000Y-63660000D03*
D25*
X98920000Y-66200000D03*
D26*
X98020000Y-66200000D03*
D25*
X98920000Y-68740000D03*
D26*
X98020000Y-68740000D03*
D25*
X98920000Y-71280000D03*
D26*
X98020000Y-71280000D03*
D21*
X98920000Y-73820000D03*
D26*
X98020000Y-73820000D03*
D25*
X98920000Y-76360000D03*
D26*
X98020000Y-76360000D03*
D25*
X98920000Y-78900000D03*
D26*
X98020000Y-78900000D03*
D25*
X116700000Y-78900000D03*
D26*
X117600000Y-78900000D03*
D25*
X116700000Y-76360000D03*
D26*
X117600000Y-76360000D03*
D21*
X116700000Y-73820000D03*
D26*
X117600000Y-73820000D03*
D25*
X116700000Y-71280000D03*
D26*
X117600000Y-71280000D03*
D25*
X116700000Y-68740000D03*
D26*
X117600000Y-68740000D03*
D25*
X116700000Y-66200000D03*
D26*
X117600000Y-66200000D03*
D25*
X116700000Y-63660000D03*
D26*
X117600000Y-63660000D03*
D21*
X116700000Y-61120000D03*
D26*
X117600000Y-61120000D03*
D25*
X116700000Y-58580000D03*
D26*
X117600000Y-58580000D03*
D25*
X116700000Y-56040000D03*
D26*
X117600000Y-56040000D03*
D25*
X116700000Y-53500000D03*
D26*
X117600000Y-53500000D03*
D25*
X116700000Y-50960000D03*
D26*
X117600000Y-50960000D03*
D21*
X116700000Y-48420000D03*
D26*
X117600000Y-48420000D03*
D25*
X116700000Y-45880000D03*
D26*
X117600000Y-45880000D03*
D25*
X116700000Y-43340000D03*
D26*
X117600000Y-43340000D03*
D25*
X116700000Y-40800000D03*
D26*
X117600000Y-40800000D03*
D25*
X116700000Y-38260000D03*
D26*
X117600000Y-38260000D03*
D21*
X116700000Y-35720000D03*
D26*
X117600000Y-35720000D03*
D25*
X116700000Y-33180000D03*
D26*
X117600000Y-33180000D03*
D25*
X116700000Y-30640000D03*
D26*
X117600000Y-30640000D03*
D17*
X135632000Y-104042000D03*
X134612000Y-104042000D03*
D27*
X147600000Y-116760000D03*
X147600000Y-118030000D03*
X147600000Y-119300000D03*
X147600000Y-120570000D03*
X153000000Y-120570000D03*
X153000000Y-119300000D03*
X153000000Y-118030000D03*
X153000000Y-116760000D03*
D28*
X121775000Y-106963000D03*
X122735000Y-106963000D03*
D29*
X142869000Y-69465000D03*
X142869000Y-68505000D03*
D17*
X135628000Y-106328000D03*
X134608000Y-106328000D03*
D30*
X125500000Y-53250000D03*
X125500000Y-55650000D03*
X127100000Y-55650000D03*
X127100000Y-53250000D03*
D11*
X155350000Y-71400000D03*
X154850000Y-71400000D03*
X154350000Y-71400000D03*
X153850000Y-71400000D03*
X153350000Y-71400000D03*
X152850000Y-71400000D03*
X152350000Y-71400000D03*
X151850000Y-71400000D03*
X151350000Y-71400000D03*
X150850000Y-71400000D03*
X150350000Y-71400000D03*
X149850000Y-71400000D03*
X149350000Y-71400000D03*
X148850000Y-71400000D03*
X148350000Y-71400000D03*
X147850000Y-71400000D03*
X147850000Y-84250000D03*
X148350000Y-84250000D03*
X148850000Y-84250000D03*
X149350000Y-84250000D03*
X149850000Y-84250000D03*
X150350000Y-84250000D03*
X150850000Y-84250000D03*
X151350000Y-84250000D03*
X151850000Y-84250000D03*
X152350000Y-84250000D03*
X152850000Y-84250000D03*
X153350000Y-84250000D03*
X153850000Y-84250000D03*
X154350000Y-84250000D03*
X154850000Y-84250000D03*
X155350000Y-84250000D03*
D31*
X159790000Y-63750000D03*
X161060000Y-63750000D03*
X162330000Y-63750000D03*
X163600000Y-63750000D03*
X163600000Y-56575000D03*
X162330000Y-56575000D03*
X161060000Y-56575000D03*
X159790000Y-56575000D03*
D13*
X152975000Y-115599000D03*
X152015000Y-115599000D03*
D14*
X134608000Y-98327000D03*
X135628000Y-98327000D03*
D32*
X133473000Y-43820000D03*
X133473000Y-42800000D03*
D12*
X158800000Y-38100000D03*
X158800000Y-39750000D03*
D14*
X120759000Y-104296000D03*
X121779000Y-104296000D03*
X134608000Y-97184000D03*
X135628000Y-97184000D03*
D33*
X165477000Y-104352000D03*
X165477000Y-105312000D03*
D34*
X135410000Y-59110000D03*
X135410000Y-62190000D03*
X135810000Y-59110000D03*
X135810000Y-62190000D03*
X136210000Y-59110000D03*
X136210000Y-62190000D03*
X136610000Y-59110000D03*
X136610000Y-62190000D03*
X137010000Y-59110000D03*
X137010000Y-62190000D03*
X137410000Y-59110000D03*
X137410000Y-62190000D03*
X137810000Y-59110000D03*
X137810000Y-62190000D03*
X138210000Y-59110000D03*
X138210000Y-62190000D03*
X138610000Y-59110000D03*
X138610000Y-62190000D03*
X139010000Y-59110000D03*
X139010000Y-62190000D03*
X139410000Y-59110000D03*
X139410000Y-62190000D03*
X139810000Y-59110000D03*
X139810000Y-62190000D03*
X140210000Y-59110000D03*
X140210000Y-62190000D03*
X140610000Y-59110000D03*
X140610000Y-62190000D03*
X141010000Y-59110000D03*
X141010000Y-62190000D03*
X141410000Y-59110000D03*
X141410000Y-62190000D03*
X141810000Y-59110000D03*
X141810000Y-62190000D03*
X142210000Y-59110000D03*
X142210000Y-62190000D03*
X142610000Y-59110000D03*
D35*
X142605000Y-62190000D03*
D34*
X143010000Y-59110000D03*
X143010000Y-62190000D03*
X143410000Y-59110000D03*
X143410000Y-62190000D03*
X143810000Y-59110000D03*
X143810000Y-62190000D03*
X144210000Y-59110000D03*
X144210000Y-62190000D03*
X144610000Y-59110000D03*
X144610000Y-62190000D03*
X145010000Y-59110000D03*
X145010000Y-62190000D03*
X145410000Y-59110000D03*
X145410000Y-62190000D03*
X145810000Y-59110000D03*
X145810000Y-62190000D03*
X146210000Y-59110000D03*
X146210000Y-62190000D03*
X146610000Y-59110000D03*
X146610000Y-62190000D03*
X147010000Y-59110000D03*
X147010000Y-62190000D03*
D36*
X166800000Y-112043000D03*
X166800000Y-113063000D03*
D37*
X96300000Y-101700000D03*
X96300000Y-98750000D03*
D38*
X166765000Y-41300000D03*
X166765000Y-46100000D03*
X166765000Y-50900000D03*
D21*
X129720000Y-30510000D03*
D22*
X129720000Y-33050000D03*
X132260000Y-30510000D03*
X132260000Y-33050000D03*
X134800000Y-30510000D03*
X134800000Y-33050000D03*
X137340000Y-30510000D03*
X137340000Y-33050000D03*
X139880000Y-30510000D03*
X139880000Y-33050000D03*
X142420000Y-30510000D03*
X142420000Y-33050000D03*
D21*
X169940000Y-58260000D03*
D22*
X172480000Y-58260000D03*
X169940000Y-60800000D03*
X172480000Y-60800000D03*
X169940000Y-63340000D03*
X172480000Y-63340000D03*
X169940000Y-65880000D03*
X172480000Y-65880000D03*
X169940000Y-68420000D03*
X172480000Y-68420000D03*
X169940000Y-70960000D03*
X172480000Y-70960000D03*
X169940000Y-73500000D03*
X172480000Y-73500000D03*
X169940000Y-76040000D03*
X172480000Y-76040000D03*
X169940000Y-78580000D03*
X172480000Y-78580000D03*
X169940000Y-81120000D03*
X172480000Y-81120000D03*
X169940000Y-83660000D03*
X172480000Y-83660000D03*
X169940000Y-86200000D03*
X172480000Y-86200000D03*
X169940000Y-88740000D03*
X172480000Y-88740000D03*
X169940000Y-91280000D03*
X172480000Y-91280000D03*
X169940000Y-93820000D03*
X172480000Y-93820000D03*
X169940000Y-96360000D03*
X172480000Y-96360000D03*
X169940000Y-98900000D03*
X172480000Y-98900000D03*
X169940000Y-101440000D03*
X172480000Y-101440000D03*
X169940000Y-103980000D03*
X172480000Y-103980000D03*
X169940000Y-106520000D03*
X172480000Y-106520000D03*
D27*
X147600000Y-110290000D03*
X147600000Y-111560000D03*
X147600000Y-112830000D03*
X147600000Y-114100000D03*
X153000000Y-114100000D03*
X153000000Y-112830000D03*
X153000000Y-111560000D03*
X153000000Y-110290000D03*
D33*
X124100000Y-53250000D03*
X124100000Y-54210000D03*
D27*
X138700000Y-110290000D03*
X138700000Y-111560000D03*
X138700000Y-112830000D03*
X138700000Y-114100000D03*
X144100000Y-114100000D03*
X144100000Y-112830000D03*
X144100000Y-111560000D03*
X144100000Y-110290000D03*
D39*
X161650000Y-44300000D03*
X161650000Y-50900000D03*
D34*
X135400000Y-45120000D03*
X135400000Y-48200000D03*
X135800000Y-45120000D03*
X135800000Y-48200000D03*
X136200000Y-45120000D03*
X136200000Y-48200000D03*
X136600000Y-45120000D03*
X136600000Y-48200000D03*
X137000000Y-45120000D03*
X137000000Y-48200000D03*
X137400000Y-45120000D03*
X137400000Y-48200000D03*
X137800000Y-45120000D03*
X137800000Y-48200000D03*
X138200000Y-45120000D03*
X138200000Y-48200000D03*
X138600000Y-45120000D03*
X138600000Y-48200000D03*
X139000000Y-45120000D03*
X139000000Y-48200000D03*
X139400000Y-45120000D03*
X139400000Y-48200000D03*
X139800000Y-45120000D03*
X139800000Y-48200000D03*
X140200000Y-45120000D03*
D40*
X140205000Y-48200000D03*
D34*
X140600000Y-45120000D03*
X140600000Y-48200000D03*
X141000000Y-45120000D03*
X141000000Y-48200000D03*
X141400000Y-45120000D03*
X141400000Y-48200000D03*
X141800000Y-45120000D03*
X141800000Y-48200000D03*
X142200000Y-45120000D03*
X142200000Y-48200000D03*
X142600000Y-45120000D03*
X142600000Y-48200000D03*
X143000000Y-45120000D03*
X143000000Y-48200000D03*
X143400000Y-45120000D03*
X143400000Y-48200000D03*
X143800000Y-45120000D03*
X143800000Y-48200000D03*
X144200000Y-45120000D03*
X144200000Y-48200000D03*
X144600000Y-45120000D03*
X144600000Y-48200000D03*
X145000000Y-45120000D03*
X145000000Y-48200000D03*
X145400000Y-45120000D03*
X145400000Y-48200000D03*
X145800000Y-45120000D03*
D40*
X145805000Y-48200000D03*
D34*
X146200000Y-45120000D03*
X146200000Y-48200000D03*
X146600000Y-45120000D03*
X146600000Y-48200000D03*
D35*
X146995000Y-45120000D03*
D34*
X147000000Y-48200000D03*
D17*
X157695000Y-59925000D03*
X156675000Y-59925000D03*
D27*
X138700000Y-116760000D03*
X138700000Y-118030000D03*
X138700000Y-119300000D03*
X138700000Y-120570000D03*
X144100000Y-120570000D03*
X144100000Y-119300000D03*
X144100000Y-118030000D03*
X144100000Y-116760000D03*
D41*
X160130000Y-35300000D03*
D42*
X161150000Y-35300000D03*
X158110000Y-35300000D03*
D43*
X162280000Y-35300000D03*
X156980000Y-35300000D03*
D41*
X159130000Y-35300000D03*
D44*
X163800000Y-35040000D03*
X163800000Y-31240000D03*
X155460000Y-35040000D03*
X155460000Y-31240000D03*
D17*
X157695000Y-61100000D03*
X156675000Y-61100000D03*
D36*
X166800000Y-115976000D03*
X166800000Y-116996000D03*
D45*
X92300000Y-111920000D03*
X92300000Y-109380000D03*
X92300000Y-106840000D03*
X92300000Y-104300000D03*
X84680000Y-104300000D03*
X84680000Y-106840000D03*
X84680000Y-109380000D03*
X84680000Y-111920000D03*
D46*
X161710000Y-104360000D03*
X161710000Y-106900000D03*
X161710000Y-111980000D03*
X161710000Y-114520000D03*
X161710000Y-117060000D03*
D17*
X157695000Y-58750000D03*
X156675000Y-58750000D03*
D29*
X157590000Y-57550000D03*
X157590000Y-56590000D03*
D14*
X120759000Y-103153000D03*
X121779000Y-103153000D03*
D29*
X151900000Y-69455000D03*
X151900000Y-68495000D03*
D47*
X97700000Y-115500000D03*
X99701520Y-115500000D03*
X101697960Y-115500000D03*
D48*
X103699480Y-115499880D03*
M02*
