M48
; DRILL file {KiCad 9.0.9} date 2026-08-16T14:09:23+0900
; FORMAT={-:-/ absolute / metric / decimal}
; #@! TF.CreationDate,2026-08-16T14:09:23+09:00
; #@! TF.GenerationSoftware,Kicad,Pcbnew,9.0.9
; #@! TF.FileFunction,MixedPlating,1,2
FMAT,2
METRIC
; #@! TA.AperFunction,Plated,PTH,ViaDrill
T1C0.300
; #@! TA.AperFunction,Plated,PTH,ComponentDrill
T2C0.600
; #@! TA.AperFunction,Plated,PTH,ComponentDrill
T3C0.798
; #@! TA.AperFunction,Plated,PTH,ComponentDrill
T4C0.800
; #@! TA.AperFunction,Plated,PTH,ComponentDrill
T5C1.000
; #@! TA.AperFunction,Plated,PTH,ComponentDrill
T6C1.020
; #@! TA.AperFunction,Plated,PTH,ComponentDrill
T7C1.500
; #@! TA.AperFunction,NonPlated,NPTH,ComponentDrill
T8C1.500
; #@! TA.AperFunction,NonPlated,NPTH,ComponentDrill
T9C1.800
; #@! TA.AperFunction,NonPlated,NPTH,ComponentDrill
T10C3.200
%
G90
G05
T1
X83.8Y-34.0
X84.2Y-88.7
X84.3Y-63.0
X84.3Y-117.8
X84.5Y-78.0
X85.2Y-30.7
X85.5Y-121.1
X87.175Y-45.375
X87.3Y-42.025
X88.0Y-29.7
X89.1Y-106.8
X90.1Y-122.6
X92.6Y-73.9
X92.7Y-79.7
X92.9Y-55.4
X92.9Y-68.7
X93.0Y-42.3
X93.4Y-120.5
X93.5Y-60.9
X93.9Y-52.2
X93.9Y-76.3
X93.925Y-37.2
X94.1Y-71.1
X94.2Y-44.8
X94.4Y-57.4
X94.7Y-64.1
X96.6Y-106.7
X97.4Y-105.9
X98.2Y-105.1
X98.7Y-98.7
X99.0Y-104.3
X99.3Y-119.1
X100.1Y-83.065
X100.235Y-108.4
X100.925Y-70.75
X101.225Y-76.35
X101.3Y-99.9
X101.6Y-35.8
X101.9Y-49.7
X101.9Y-100.6
X102.1Y-33.25
X102.2Y-30.6
X102.2Y-44.1
X102.5Y-99.9
X103.1Y-100.6
X104.8Y-78.9
X105.1Y-61.12
X105.5Y-98.5
X106.2Y-54.7
X106.4Y-70.1
X106.4Y-103.2
X107.1Y-50.8
X108.2Y-110.0
X109.9Y-105.0
X110.0Y-69.5
X110.0Y-71.3
X110.1Y-76.4
X110.1Y-78.9
X110.539Y-72.4
X111.1Y-73.6
X111.62Y-61.12
X111.9Y-100.1
X112.0Y-38.1
X112.9Y-59.2
X113.5Y-45.8
X113.9Y-104.7
X114.2Y-33.275
X114.7Y-51.4
X115.172Y-112.2
X116.6Y-121.1
X117.33Y-102.01
X117.965Y-103.153
X118.6Y-104.296
X119.3Y-81.0
X119.3Y-87.5
X119.87Y-102.01
X119.87Y-103.153
X119.87Y-104.296
X120.2Y-54.7
X121.0Y-67.7
X121.8Y-71.367
X121.8Y-37.6
X122.562Y-71.367
X122.6Y-67.0
X122.735Y-112.2
X123.0Y-62.1
X123.1Y-46.9
X123.1Y-55.7
X123.1Y-59.3
X123.2Y-67.6
X123.567Y-63.0
X123.9Y-44.5
X124.0Y-70.4
X124.1Y-62.1
X124.8Y-70.4
X124.837Y-79.277
X125.3Y-29.7
X125.6Y-76.6
X125.6Y-86.0
X125.853Y-75.086
X126.0Y-97.8
X126.2Y-49.95
X126.488Y-81.055
X126.5Y-72.5
X126.67Y-36.1
X126.7Y-65.6
X127.15Y-89.767
X127.2Y-93.4
X127.7Y-51.5
X127.758Y-71.9
X127.758Y-80.42
X127.9Y-120.0
X128.5Y-41.0
X128.52Y-79.785
X128.55Y-53.25
X128.6Y-51.5
X128.6Y-55.1
X128.6Y-104.0
X129.25Y-85.925
X129.3Y-43.4
X129.4Y-41.0
X129.9Y-62.8
X129.9Y-86.475
X130.1Y-116.0
X130.138Y-44.5
X130.5Y-108.9
X130.525Y-87.025
X130.6Y-47.9
X131.1Y-48.6
X131.148Y-87.552
X131.825Y-88.117
X132.1Y-48.9
X132.343Y-51.833
X132.4Y-88.65
X132.6Y-44.8
X133.025Y-89.217
X133.575Y-89.75
X133.8Y-112.2
X133.9Y-120.5
X134.133Y-75.7
X134.2Y-45.4
X134.3Y-47.5
X134.6Y-108.4
X134.7Y-78.7
X134.9Y-48.9
X134.9Y-60.0
X135.0Y-46.9
X135.0Y-95.1
X135.1Y-44.2
X135.2Y-36.8
X135.2Y-69.4
X135.2Y-49.6
X135.6Y-50.3
X135.7Y-63.123
X135.705Y-46.323
X135.8Y-60.3
X135.8Y-83.065
X135.8Y-115.1
X135.9Y-68.8
X136.5Y-46.267
X136.5Y-58.2
X136.5Y-69.4
X136.5Y-82.5
X136.521Y-97.184
X136.521Y-98.327
X136.521Y-100.613
X136.521Y-101.756
X136.521Y-102.899
X136.521Y-104.042
X136.521Y-105.185
X136.521Y-106.328
X136.7Y-63.123
X137.01Y-60.29
X137.1Y-68.8
X137.1Y-81.9
X137.156Y-107.5
X137.4Y-46.9
X137.4Y-58.2
X137.7Y-109.2
X137.791Y-104.042
X137.918Y-115.091
X138.1Y-46.4
X138.2Y-61.0
X138.3Y-68.8
X138.3Y-78.1
X138.426Y-102.899
X138.6Y-43.6
X138.6Y-52.033
X138.68Y-115.599
X138.68Y-121.314
X138.7Y-46.9
X138.8Y-41.0
X138.869Y-72.765
X138.969Y-81.865
X139.061Y-100.613
X139.3Y-60.3
X139.301Y-46.394
X139.347Y-40.4
X139.369Y-73.365
X139.4Y-52.5
X139.433Y-51.5
X139.469Y-82.465
X139.696Y-101.756
X139.877Y-73.933
X139.9Y-41.0
X139.967Y-46.9
X139.969Y-83.065
X140.0Y-63.0
X140.077Y-107.471
X140.331Y-98.327
X140.35Y-85.875
X140.4Y-42.6
X140.402Y-74.505
X140.467Y-52.5
X140.6Y-46.367
X140.7Y-77.6
X140.836Y-86.586
X140.901Y-75.08
X140.966Y-96.295
X140.966Y-105.82
X141.0Y-42.1
X141.2Y-54.1
X141.2Y-58.2
X141.2Y-60.867
X141.375Y-87.125
X141.436Y-75.665
X141.601Y-98.3
X141.601Y-115.599
X141.728Y-120.552
X141.85Y-87.742
X141.969Y-76.265
X142.154Y-66.467
X142.21Y-58.11
X142.236Y-104.042
X142.25Y-92.25
X142.363Y-110.9
X142.363Y-114.075
X142.363Y-117.123
X142.363Y-118.012
X142.469Y-76.89
X142.575Y-119.8
X142.61Y-60.29
X142.8Y-52.6
X142.8Y-53.4
X142.825Y-88.275
X142.871Y-104.804
X143.0Y-65.8
X143.2Y-60.867
X143.323Y-88.852
X143.419Y-77.465
X143.9Y-68.2
X143.9Y-70.0
X143.919Y-78.065
X143.952Y-89.392
X144.0Y-58.0
X144.0Y-60.3
X144.421Y-78.667
X144.536Y-89.928
X144.6Y-43.6
X144.6Y-49.0
X144.6Y-97.1
X144.686Y-60.867
X144.8Y-66.4
X144.903Y-109.122
X144.903Y-115.091
X144.919Y-79.265
X145.075Y-90.467
X145.3Y-53.4
X145.4Y-60.3
X145.419Y-79.865
X145.45Y-63.55
X145.538Y-106.836
X145.8Y-65.8
X145.921Y-80.467
X146.15Y-91.0
X146.173Y-108.106
X146.193Y-64.108
X146.2Y-60.3
X146.225Y-49.3
X146.419Y-81.065
X146.775Y-91.6
X146.8Y-58.0
X147.1Y-60.3
X147.2Y-92.7
X147.57Y-115.726
X147.8Y-53.4
X147.869Y-72.765
X147.875Y-81.875
X147.89Y-59.11
X148.2Y-42.9
X148.2Y-60.3
X148.2Y-61.4
X148.205Y-108.995
X148.205Y-115.091
X148.402Y-73.309
X148.6Y-55.6
X148.625Y-82.3
X148.869Y-73.912
X148.967Y-107.471
X148.997Y-83.095
X149.0Y-68.2
X149.094Y-105.82
X149.369Y-74.487
X149.369Y-85.875
X149.729Y-118.012
X149.869Y-75.065
X149.869Y-86.65
X150.1Y-35.9
X150.175Y-81.75
X150.2Y-29.8
X150.262Y-109.147
X150.262Y-115.599
X150.325Y-119.625
X150.364Y-117.123
X150.369Y-75.665
X150.369Y-87.225
X150.4Y-64.243
X150.5Y-70.0
X150.869Y-76.265
X150.869Y-87.8
X151.253Y-114.075
X151.253Y-120.552
X151.4Y-92.2
X151.402Y-76.865
X151.6Y-64.243
X151.898Y-88.333
X152.369Y-77.465
X152.5Y-88.867
X152.8Y-65.4
X152.8Y-68.3
X152.8Y-70.0
X152.869Y-78.065
X152.975Y-108.233
X153.061Y-89.394
X153.3Y-64.1
X153.336Y-78.667
X153.6Y-89.933
X153.793Y-115.599
X153.836Y-79.265
X154.0Y-68.6
X154.1Y-64.8
X154.167Y-90.467
X154.369Y-79.865
X154.428Y-106.836
X154.7Y-92.2
X154.75Y-51.225
X154.8Y-56.6
X154.836Y-80.467
X155.233Y-90.998
X155.402Y-81.065
X155.5Y-99.9
X155.6Y-92.9
X155.6Y-121.3
X155.767Y-91.6
X156.3Y-88.85
X156.75Y-74.75
X156.8Y-68.7
X156.925Y-87.85
X157.1Y-64.1
X157.3Y-119.7
X157.45Y-100.1
X157.575Y-86.675
X157.875Y-98.175
X158.1Y-122.8
X158.125Y-72.775
X158.375Y-95.575
X158.4Y-55.7
X158.425Y-88.725
X158.5Y-62.3
X158.525Y-82.475
X158.6Y-59.1
X158.6Y-67.0
X158.9Y-77.0
X159.0Y-72.8
X159.1Y-79.3
X159.3Y-84.45
X159.4Y-69.455
X159.7Y-79.9
X159.775Y-58.375
X160.2Y-85.875
X160.3Y-73.9
X160.4Y-68.7
X160.9Y-75.9
X160.9Y-78.6
X161.0Y-73.5
X161.15Y-92.9
X163.5Y-68.7
X163.575Y-61.9
X164.2Y-70.6
X164.4Y-38.7
X164.8Y-74.6
X164.8Y-82.6
X164.9Y-77.3
X165.3Y-80.0
X165.5Y-87.6
X166.1Y-85.0
X166.1Y-110.0
X166.3Y-90.0
X166.4Y-92.6
X166.4Y-99.9
X166.5Y-94.9
X166.6Y-97.9
X167.0Y-68.2
X167.4Y-54.9
X167.4Y-107.5
X171.0Y-29.5
X172.1Y-122.8
X173.4Y-110.6
X174.4Y-53.6
X174.6Y-70.1
X174.7Y-85.1
X175.6Y-30.8
X175.6Y-121.5
X175.7Y-110.0
X177.0Y-37.2
X177.0Y-63.0
X177.0Y-118.3
X177.1Y-85.7
T3
X97.7Y-115.5
X99.702Y-115.5
X101.698Y-115.5
X103.699Y-115.5
T4
X161.71Y-104.36
X161.71Y-106.9
X161.71Y-111.98
X161.71Y-114.52
X161.71Y-117.06
T5
X84.68Y-104.3
X84.68Y-106.84
X84.68Y-109.38
X84.68Y-111.92
X87.41Y-51.91
X87.41Y-54.45
X87.41Y-56.99
X87.41Y-59.53
X87.41Y-62.07
X87.41Y-64.61
X87.41Y-67.15
X87.41Y-69.69
X87.41Y-72.23
X87.41Y-74.77
X87.41Y-77.31
X87.41Y-79.85
X87.41Y-82.39
X87.41Y-84.93
X87.41Y-87.47
X87.41Y-90.01
X87.41Y-92.55
X87.41Y-95.09
X87.41Y-97.63
X87.41Y-100.17
X89.95Y-51.91
X89.95Y-54.45
X89.95Y-56.99
X89.95Y-59.53
X89.95Y-62.07
X89.95Y-64.61
X89.95Y-67.15
X89.95Y-69.69
X89.95Y-72.23
X89.95Y-74.77
X89.95Y-77.31
X89.95Y-79.85
X89.95Y-82.39
X89.95Y-84.93
X89.95Y-87.47
X89.95Y-90.01
X89.95Y-92.55
X89.95Y-95.09
X89.95Y-97.63
X89.95Y-100.17
X92.3Y-104.3
X92.3Y-106.84
X92.3Y-109.38
X92.3Y-111.92
X129.72Y-30.51
X129.72Y-33.05
X132.26Y-30.51
X132.26Y-33.05
X134.8Y-30.51
X134.8Y-33.05
X137.34Y-30.51
X137.34Y-33.05
X139.88Y-30.51
X139.88Y-33.05
X142.42Y-30.51
X142.42Y-33.05
X169.94Y-58.26
X169.94Y-60.8
X169.94Y-63.34
X169.94Y-65.88
X169.94Y-68.42
X169.94Y-70.96
X169.94Y-73.5
X169.94Y-76.04
X169.94Y-78.58
X169.94Y-81.12
X169.94Y-83.66
X169.94Y-86.2
X169.94Y-88.74
X169.94Y-91.28
X169.94Y-93.82
X169.94Y-96.36
X169.94Y-98.9
X169.94Y-101.44
X169.94Y-103.98
X169.94Y-106.52
X172.48Y-58.26
X172.48Y-60.8
X172.48Y-63.34
X172.48Y-65.88
X172.48Y-68.42
X172.48Y-70.96
X172.48Y-73.5
X172.48Y-76.04
X172.48Y-78.58
X172.48Y-81.12
X172.48Y-83.66
X172.48Y-86.2
X172.48Y-88.74
X172.48Y-91.28
X172.48Y-93.82
X172.48Y-96.36
X172.48Y-98.9
X172.48Y-101.44
X172.48Y-103.98
X172.48Y-106.52
T6
X98.92Y-30.64
X98.92Y-33.18
X98.92Y-35.72
X98.92Y-38.26
X98.92Y-40.8
X98.92Y-43.34
X98.92Y-45.88
X98.92Y-48.42
X98.92Y-50.96
X98.92Y-53.5
X98.92Y-56.04
X98.92Y-58.58
X98.92Y-61.12
X98.92Y-63.66
X98.92Y-66.2
X98.92Y-68.74
X98.92Y-71.28
X98.92Y-73.82
X98.92Y-76.36
X98.92Y-78.9
X116.7Y-30.64
X116.7Y-33.18
X116.7Y-35.72
X116.7Y-38.26
X116.7Y-40.8
X116.7Y-43.34
X116.7Y-45.88
X116.7Y-48.42
X116.7Y-50.96
X116.7Y-53.5
X116.7Y-56.04
X116.7Y-58.58
X116.7Y-61.12
X116.7Y-63.66
X116.7Y-66.2
X116.7Y-68.74
X116.7Y-71.28
X116.7Y-73.82
X116.7Y-76.36
X116.7Y-78.9
T7
X166.765Y-41.3
X166.765Y-46.1
X166.765Y-50.9
T8
X105.385Y-33.8
X110.235Y-33.8
T9
X105.085Y-30.77
X110.535Y-30.77
T10
X87.8Y-33.6
X87.8Y-118.6
X172.8Y-33.6
X172.8Y-118.6
T2
G00X155.46Y-31.54
M15
G01X155.46Y-30.94
M16
G05
G00X155.46Y-35.34
M15
G01X155.46Y-34.74
M16
G05
G00X163.8Y-31.54
M15
G01X163.8Y-30.94
M16
G05
G00X163.8Y-35.34
M15
G01X163.8Y-34.74
M16
G05
M30
