G04 #@! TF.GenerationSoftware,KiCad,Pcbnew,9.0.9*
G04 #@! TF.CreationDate,2026-08-16T08:34:35+09:00*
G04 #@! TF.ProjectId,StackCPU,53746163-6b43-4505-952e-6b696361645f,rev?*
G04 #@! TF.SameCoordinates,Original*
G04 #@! TF.FileFunction,Profile,NP*
%FSLAX46Y46*%
G04 Gerber Fmt 4.6, Leading zero omitted, Abs format (unit mm)*
G04 Created by KiCad (PCBNEW 9.0.9) date 2026-08-16 08:34:35*
%MOMM*%
%LPD*%
G01*
G04 APERTURE LIST*
G04 #@! TA.AperFunction,Profile*
%ADD10C,0.050000*%
G04 #@! TD*
G04 APERTURE END LIST*
D10*
X82800000Y-118600000D02*
X82800000Y-33600000D01*
X87800000Y-28600000D02*
X172800000Y-28600000D01*
X172800000Y-123600000D02*
X87800000Y-123600000D01*
X177800000Y-33600000D02*
X177800000Y-118600000D01*
X82800000Y-33600000D02*
G75*
G02*
X87800000Y-28600000I5000000J0D01*
G01*
X87800000Y-123600000D02*
G75*
G02*
X82800000Y-118600000I0J5000000D01*
G01*
X172800000Y-28600000D02*
G75*
G02*
X177800000Y-33600000I0J-5000000D01*
G01*
X177800000Y-118600000D02*
G75*
G02*
X172800000Y-123600000I-5000000J0D01*
G01*
X114057000Y-119500000D02*
G75*
G02*
X113057000Y-119500000I-500000J0D01*
G01*
X113057000Y-119500000D02*
G75*
G02*
X114057000Y-119500000I500000J0D01*
G01*
X122067000Y-119490000D02*
G75*
G02*
X121067000Y-119490000I-500000J0D01*
G01*
X121067000Y-119490000D02*
G75*
G02*
X122067000Y-119490000I500000J0D01*
G01*
X132549706Y-46650000D02*
G75*
G02*
X130850294Y-46650000I-849706J0D01*
G01*
X130850294Y-46650000D02*
G75*
G02*
X132549706Y-46650000I849706J0D01*
G01*
X132549706Y-60640000D02*
G75*
G02*
X130850294Y-60640000I-849706J0D01*
G01*
X130850294Y-60640000D02*
G75*
G02*
X132549706Y-60640000I849706J0D01*
G01*
X151554283Y-46660000D02*
G75*
G02*
X149845717Y-46660000I-854283J0D01*
G01*
X149845717Y-46660000D02*
G75*
G02*
X151554283Y-46660000I854283J0D01*
G01*
X151560000Y-60650000D02*
G75*
G02*
X149860000Y-60650000I-850000J0D01*
G01*
X149860000Y-60650000D02*
G75*
G02*
X151560000Y-60650000I850000J0D01*
G01*
M02*
