G04 #@! TF.GenerationSoftware,KiCad,Pcbnew,9.0.9*
G04 #@! TF.CreationDate,2026-08-16T14:09:21+09:00*
G04 #@! TF.ProjectId,StackCPU,53746163-6b43-4505-952e-6b696361645f,rev?*
G04 #@! TF.SameCoordinates,Original*
G04 #@! TF.FileFunction,Soldermask,Bot*
G04 #@! TF.FilePolarity,Negative*
%FSLAX46Y46*%
G04 Gerber Fmt 4.6, Leading zero omitted, Abs format (unit mm)*
G04 Created by KiCad (PCBNEW 9.0.9) date 2026-08-16 14:09:21*
%MOMM*%
%LPD*%
G01*
G04 APERTURE LIST*
%ADD10C,3.200000*%
%ADD11R,1.700000X1.700000*%
%ADD12C,1.700000*%
%ADD13O,1.800000X1.800000*%
%ADD14O,1.500000X1.500000*%
%ADD15O,1.700000X1.700000*%
%ADD16O,3.000000X2.200000*%
%ADD17O,1.000000X1.700000*%
%ADD18C,1.500000*%
%ADD19C,2.000000*%
%ADD20C,1.270000*%
%ADD21R,1.270000X1.270000*%
G04 APERTURE END LIST*
D10*
X87800000Y-33600000D03*
X87800000Y-118600000D03*
X172800000Y-33600000D03*
X172800000Y-118600000D03*
D11*
X87410000Y-51910000D03*
D12*
X89950000Y-51910000D03*
X87410000Y-54450000D03*
X89950000Y-54450000D03*
X87410000Y-56990000D03*
X89950000Y-56990000D03*
X87410000Y-59530000D03*
X89950000Y-59530000D03*
X87410000Y-62070000D03*
X89950000Y-62070000D03*
X87410000Y-64610000D03*
X89950000Y-64610000D03*
X87410000Y-67150000D03*
X89950000Y-67150000D03*
X87410000Y-69690000D03*
X89950000Y-69690000D03*
X87410000Y-72230000D03*
X89950000Y-72230000D03*
X87410000Y-74770000D03*
X89950000Y-74770000D03*
X87410000Y-77310000D03*
X89950000Y-77310000D03*
X87410000Y-79850000D03*
X89950000Y-79850000D03*
X87410000Y-82390000D03*
X89950000Y-82390000D03*
X87410000Y-84930000D03*
X89950000Y-84930000D03*
X87410000Y-87470000D03*
X89950000Y-87470000D03*
X87410000Y-90010000D03*
X89950000Y-90010000D03*
X87410000Y-92550000D03*
X89950000Y-92550000D03*
X87410000Y-95090000D03*
X89950000Y-95090000D03*
X87410000Y-97630000D03*
X89950000Y-97630000D03*
X87410000Y-100170000D03*
X89950000Y-100170000D03*
D13*
X105085000Y-30770000D03*
D14*
X105385000Y-33800000D03*
X110235000Y-33800000D03*
D13*
X110535000Y-30770000D03*
D15*
X98920000Y-30640000D03*
X98920000Y-33180000D03*
D11*
X98920000Y-35720000D03*
D15*
X98920000Y-38260000D03*
X98920000Y-40800000D03*
X98920000Y-43340000D03*
X98920000Y-45880000D03*
D11*
X98920000Y-48420000D03*
D15*
X98920000Y-50960000D03*
X98920000Y-53500000D03*
X98920000Y-56040000D03*
X98920000Y-58580000D03*
D11*
X98920000Y-61120000D03*
D15*
X98920000Y-63660000D03*
X98920000Y-66200000D03*
X98920000Y-68740000D03*
X98920000Y-71280000D03*
D11*
X98920000Y-73820000D03*
D15*
X98920000Y-76360000D03*
X98920000Y-78900000D03*
X116700000Y-78900000D03*
X116700000Y-76360000D03*
D11*
X116700000Y-73820000D03*
D15*
X116700000Y-71280000D03*
X116700000Y-68740000D03*
X116700000Y-66200000D03*
X116700000Y-63660000D03*
D11*
X116700000Y-61120000D03*
D15*
X116700000Y-58580000D03*
X116700000Y-56040000D03*
X116700000Y-53500000D03*
X116700000Y-50960000D03*
D11*
X116700000Y-48420000D03*
D15*
X116700000Y-45880000D03*
X116700000Y-43340000D03*
X116700000Y-40800000D03*
X116700000Y-38260000D03*
D11*
X116700000Y-35720000D03*
D15*
X116700000Y-33180000D03*
X116700000Y-30640000D03*
D16*
X166765000Y-41300000D03*
X166765000Y-46100000D03*
X166765000Y-50900000D03*
D11*
X129720000Y-30510000D03*
D12*
X129720000Y-33050000D03*
X132260000Y-30510000D03*
X132260000Y-33050000D03*
X134800000Y-30510000D03*
X134800000Y-33050000D03*
X137340000Y-30510000D03*
X137340000Y-33050000D03*
X139880000Y-30510000D03*
X139880000Y-33050000D03*
X142420000Y-30510000D03*
X142420000Y-33050000D03*
D11*
X169940000Y-58260000D03*
D12*
X172480000Y-58260000D03*
X169940000Y-60800000D03*
X172480000Y-60800000D03*
X169940000Y-63340000D03*
X172480000Y-63340000D03*
X169940000Y-65880000D03*
X172480000Y-65880000D03*
X169940000Y-68420000D03*
X172480000Y-68420000D03*
X169940000Y-70960000D03*
X172480000Y-70960000D03*
X169940000Y-73500000D03*
X172480000Y-73500000D03*
X169940000Y-76040000D03*
X172480000Y-76040000D03*
X169940000Y-78580000D03*
X172480000Y-78580000D03*
X169940000Y-81120000D03*
X172480000Y-81120000D03*
X169940000Y-83660000D03*
X172480000Y-83660000D03*
X169940000Y-86200000D03*
X172480000Y-86200000D03*
X169940000Y-88740000D03*
X172480000Y-88740000D03*
X169940000Y-91280000D03*
X172480000Y-91280000D03*
X169940000Y-93820000D03*
X172480000Y-93820000D03*
X169940000Y-96360000D03*
X172480000Y-96360000D03*
X169940000Y-98900000D03*
X172480000Y-98900000D03*
X169940000Y-101440000D03*
X172480000Y-101440000D03*
X169940000Y-103980000D03*
X172480000Y-103980000D03*
X169940000Y-106520000D03*
X172480000Y-106520000D03*
D17*
X163800000Y-35040000D03*
X163800000Y-31240000D03*
X155460000Y-35040000D03*
X155460000Y-31240000D03*
D18*
X92300000Y-111920000D03*
X92300000Y-109380000D03*
X92300000Y-106840000D03*
X92300000Y-104300000D03*
X84680000Y-104300000D03*
X84680000Y-106840000D03*
X84680000Y-109380000D03*
X84680000Y-111920000D03*
D19*
X161710000Y-104360000D03*
X161710000Y-106900000D03*
X161710000Y-111980000D03*
X161710000Y-114520000D03*
X161710000Y-117060000D03*
D20*
X97700000Y-115500000D03*
X99701520Y-115500000D03*
X101697960Y-115500000D03*
D21*
X103699480Y-115499880D03*
M02*
